<svg width="24" height="24" viewBox="0 0 24 24" fill="none" xmlns="http://www.w3.org/2000/svg">
<mask id="mask0_6_438" style="mask-type:alpha" maskUnits="userSpaceOnUse" x="0" y="0" width="24" height="24">
<rect width="24" height="24" transform="matrix(0 -1 -1 0 24 24)" fill="#C4C4C4"/>
</mask>
<g mask="url(#mask0_6_438)">
<path d="M16.7803 6.46999L21.7802 11.47C22.0732 11.763 22.0732 12.238 21.7802 12.53L16.7803 17.53C16.4872 17.824 16.0122 17.824 15.7202 17.53C15.4282 17.236 15.4262 16.763 15.7202 16.47L19.4403 12.75L9.25024 12.75C8.83624 12.75 8.50024 12.414 8.50024 12C8.50024 11.586 8.83624 11.25 9.25024 11.25L19.4403 11.25L15.7202 7.52999C15.5732 7.38399 15.5002 7.19199 15.5002 6.99999C15.5002 6.80799 15.5722 6.61599 15.7202 6.46999C16.0132 6.17699 16.4872 6.17699 16.7803 6.46999Z" fill="black"/>
<path d="M2.30624 4.29201L2.30624 19.708C2.30624 20.972 3.33424 22 4.59824 22H10.2502C10.6642 22 11.0002 21.664 11.0002 21.25C11.0002 20.836 10.6642 20.5 10.2502 20.5H4.59824C4.16124 20.5 3.80624 20.145 3.80624 19.708L3.80624 4.29201C3.80624 3.85501 4.16124 3.5 4.59824 3.5H10.2502C10.6642 3.5 11.0002 3.164 11.0002 2.75C11.0002 2.336 10.6642 2 10.2502 2H4.59824C3.33424 2 2.30624 3.02801 2.30624 4.29201Z" fill="black"/>
</g>
</svg>
