<svg width="26" height="24" viewBox="0 0 26 24" fill="none" xmlns="http://www.w3.org/2000/svg">
<path d="M25.0286 6.57055L13.2417 0.206379C12.9816 0.0663794 12.6701 0.0663794 12.4099 0.206379L0.625393 6.57055C0.200726 6.80038 0.0420622 7.33121 0.271896 7.75705C0.429396 8.04871 0.731562 8.21554 1.0419 8.21554C1.1819 8.21554 1.32539 8.18054 1.45723 8.11054L2.40806 7.5972L4.30856 21.029C4.55823 22.4465 5.83456 23.4347 7.40956 23.4347H18.2386C19.8159 23.4347 21.0911 22.4454 21.3454 20.9999L23.2424 7.59487L24.1967 8.11054C24.6214 8.33571 25.1534 8.18054 25.3832 7.75587C25.6119 7.33237 25.4532 6.80155 25.0286 6.57055ZM19.6176 20.7257C19.4927 21.4327 18.7974 21.6847 18.2409 21.6847H7.41189C6.85189 21.6847 6.15773 21.4327 6.03756 20.7537L4.05189 6.71054L12.8252 1.97155L21.6009 6.70821L19.6176 20.7257Z" fill="black"/>
<path d="M8.4152 11.9535C8.4152 14.3848 10.3927 16.3635 12.8252 16.3635C15.2577 16.3635 17.2352 14.3848 17.2352 11.9535C17.2352 9.52217 15.2577 7.54351 12.8252 7.54351C10.3927 7.54351 8.4152 9.52217 8.4152 11.9535ZM15.4852 11.9535C15.4852 13.4212 14.2929 14.6135 12.8252 14.6135C11.3575 14.6135 10.1652 13.4212 10.1652 11.9535C10.1652 10.4858 11.3575 9.29351 12.8252 9.29351C14.2929 9.29351 15.4852 10.4858 15.4852 11.9535Z" fill="black"/>
</svg>
