<svg width="28" height="26" viewBox="0 0 28 26" fill="none" xmlns="http://www.w3.org/2000/svg">
<mask id="mask0_6_407" style="mask-type:alpha" maskUnits="userSpaceOnUse" x="0" y="0" width="24" height="24">
<rect width="24" height="24" fill="#C4C4C4"/>
</mask>
<g>
<path d="M25.3142 17.0624C25.2909 17.0437 22.8175 15.1491 22.8607 10.0274C22.884 7.07339 21.9134 4.44838 20.1225 2.63655C18.5184 1.01138 16.3461 0.113046 14.0069 0.101379H13.9917C11.6537 0.113046 9.48139 1.01139 7.87606 2.63773C6.08639 4.44956 5.1134 7.07339 5.13906 10.0274C5.18223 15.0791 2.78239 16.9889 2.68673 17.0624C2.38339 17.2876 2.25973 17.6807 2.37756 18.0401C2.49656 18.3994 2.83255 18.6409 3.20821 18.6409H8.94823C9.06723 21.3359 11.278 23.4942 13.9999 23.4942C16.7217 23.4942 18.9302 21.3359 19.0481 18.6409H24.7904C25.1661 18.6409 25.502 18.4006 25.6187 18.0412C25.7389 17.6831 25.6152 17.2887 25.3119 17.0635L25.3142 17.0624ZM14.0011 21.7407C12.2452 21.7407 10.8161 20.3676 10.7017 18.6397H17.3004C17.1837 20.3664 15.7569 21.743 14.0011 21.743V21.7407ZM5.11106 16.8897C5.9744 15.5691 6.91706 13.357 6.88906 10.011C6.86806 7.49105 7.64039 5.36539 9.12089 3.86622C10.3961 2.57472 12.1309 1.85955 14.0011 1.85138C15.8712 1.86071 17.6025 2.57473 18.8777 3.86739C20.3594 5.36656 21.1329 7.49106 21.1119 10.0122C21.0839 13.3582 22.0277 15.5714 22.891 16.8909H5.11106V16.8897Z" fill="black"/>
</g></svg>
